# xmcd
#
# Track frame offsets: 
#        150
#        15102
#        28387
#        44419
#        61517
#        74936
#        89408
#        106798
#        122795
#        136249
#        148080
#        164309
#        175992
#        190689
#        206651
#        220928
#
# Disc length: 3080 seconds
#
# Revision: 4
# Processed by: cddbd v1.5.2PL0 Copyright (c) Steve Scherf et al.
# Submitted via: ExactAudioCopy v0.99pb5
#
DISCID=e80c0610
DTITLE=Various Artist - Schlager Souvenirs Vol.2 [CD1)
DYEAR=1997
DGENRE=Oldies
TTITLE0=Iren Sheer - Xanadu
TTITLE1=Cindy and Bert - Lust auf Dich
TTITLE2=Peter Rubin - Wir zwei fahren irgendwo hin
TTITLE3=Sandy van Ry - Ich will viel mehr von Dir
TTITLE4=Drafi Deutscher - Roch'n Roll Kids
TTITLE5=Gitti and Erika - An meinen Mann
TTITLE6=Oliver Simon - Du, ich brauch Dich
TTITLE7=Joerg Hindemith - Auch ein Engel hat mal Sorgen
TTITLE8=Lena Valaitis - Alles was Dein Herz begehrt
TTITLE9=Freddy beck - Rot ist der Wein (spanish Eyes)
TTITLE10=Alex - Verzaubert und verlor'n
TTITLE11=Erik Sylvetser - Manana
TTITLE12=Ulla Norden - Schnall Dich an
TTITLE13=Michael Stein - Du kannst mich mal
TTITLE14=Mary Roos - Alles was ich will bist Du
TTITLE15=Ramona - Alles was wir woll'n auf Erden
EXTD=
EXTT0=
EXTT1=
EXTT2=
EXTT3=
EXTT4=
EXTT5=
EXTT6=
EXTT7=
EXTT8=
EXTT9=
EXTT10=
EXTT11=
EXTT12=
EXTT13=
EXTT14=
EXTT15=
PLAYORDER=
